<?xml version="1.0" encoding="UTF-8" standalone="no"?>
<svg
   class="img-fluid safari"
   id="outputsvg"
   width="660"
   height="408"
   viewBox="0 0 6600 4080"
   version="1.1"
   xmlns="http://www.w3.org/2000/svg"
   xmlns:svg="http://www.w3.org/2000/svg">
  <defs
     id="defs1350" />
  <g
     id="l1Iio2sngUd8MXkWTYOHEFm"
     fill="#000000">
    <g
       id="g1335">
      <path
         id="pgMlyK9aj"
         d="m 4587,3438 c -6,-87 -51,-241 -85,-288 -49,-68 -69,-202 -37,-244 8,-11 15,-33 15,-48 0,-16 7,-42 14,-57 16,-29 74,-85 97,-93 11,-4 11,-10 1,-33 l -13,-28 -82,9 c -132,13 -204,10 -228,-12 -54,-49 -66,-131 -23,-161 14,-10 37,-27 52,-39 46,-36 167,-70 297,-84 44,-4 98,-13 120,-20 71,-22 126,-23 217,-4 105,21 187,59 205,94 26,52 8,285 -25,322 -24,28 -98,68 -126,68 -15,0 -30,8 -36,20 -7,13 -21,20 -42,20 -17,0 -48,5 -67,11 -87,28 -114,44 -138,83 -25,39 -25,40 -9,91 9,29 16,72 16,97 0,30 7,54 20,71 24,30 26,90 5,127 -8,14 -14,46 -15,72 0,26 -4,50 -10,53 -5,3 -10,17 -10,31 0,22 -3,24 -54,24 h -53 z" />
      <path
         id="puVW7xRUt"
         d="m 2184,3483 c -6,-5 -15,-24 -19,-43 -4,-19 -13,-42 -20,-50 -8,-9 -20,-83 -30,-185 -9,-93 -20,-184 -26,-201 -5,-17 -9,-48 -9,-70 0,-65 -17,-79 -92,-76 -34,1 -87,-1 -115,-4 l -53,-5 v -54 c 0,-36 4,-55 14,-58 7,-3 17,-22 20,-42 4,-20 15,-39 24,-42 9,-4 30,-17 45,-30 22,-18 41,-23 83,-23 52,0 68,-10 42,-27 -7,-4 -51,-16 -98,-25 -52,-11 -90,-25 -97,-35 -7,-9 -13,-38 -13,-65 0,-44 4,-52 61,-115 34,-38 69,-71 78,-74 24,-8 293,-2 401,10 159,17 205,47 216,143 12,104 -22,143 -136,155 -102,10 -78,23 45,23 91,0 121,4 141,16 49,33 69,129 40,198 -16,39 -40,46 -160,46 -112,0 -120,7 -123,107 -9,286 -20,420 -39,473 l -20,55 -75,3 c -41,1 -79,-1 -85,-5 z" />
      <path
         id="pS9FkISQT"
         d="m 1314,3326 c -34,-15 -44,-38 -44,-107 0,-29 -6,-51 -15,-59 -8,-7 -15,-28 -15,-48 0,-19 -5,-63 -11,-97 -9,-45 -9,-71 -1,-93 15,-44 -14,-68 -98,-77 -77,-9 -107,-19 -137,-47 -42,-39 -21,-123 48,-194 25,-25 45,-35 98,-44 36,-7 75,-17 85,-23 18,-9 18,-10 -5,-23 -13,-7 -44,-13 -69,-14 -25,0 -56,-7 -68,-16 -19,-13 -22,-24 -22,-87 0,-89 13,-111 87,-143 46,-21 69,-24 166,-24 62,0 155,7 207,15 52,9 119,18 148,22 28,3 52,10 52,15 0,5 14,29 31,52 26,37 30,50 27,97 -3,48 -6,56 -37,76 -27,18 -48,23 -102,23 -119,0 -138,24 -26,33 96,8 134,23 152,58 18,35 20,149 3,171 -15,20 -121,58 -158,58 -50,0 -90,63 -90,142 0,29 -5,69 -11,88 -5,19 -10,65 -9,102 0,55 -3,71 -20,88 -11,11 -20,24 -20,28 0,38 -86,54 -146,28 z" />
      <path
         id="p2o4WIt5v"
         d="m 3700,2838 c 0,-24 9,-67 20,-96 11,-29 20,-65 20,-82 0,-16 9,-37 20,-48 20,-18 70,-127 112,-241 10,-30 30,-76 44,-102 l 24,-48 -28,-19 c -35,-26 -52,-88 -52,-191 0,-79 27,-217 55,-285 21,-50 85,-89 155,-94 74,-5 98,14 107,85 5,48 3,55 -26,88 -17,20 -31,46 -31,58 -1,12 -7,33 -15,47 -8,14 -14,33 -15,44 0,15 10,10 46,-23 55,-51 99,-71 157,-71 67,0 97,28 97,91 0,27 -4,49 -9,49 -12,0 -91,109 -91,126 0,8 32,13 113,15 141,5 151,11 145,86 -3,29 -7,56 -11,59 -12,12 -166,26 -237,20 -72,-5 -76,-4 -102,22 -14,15 -38,52 -53,83 -14,31 -39,69 -56,84 -16,16 -29,34 -29,41 0,6 -8,22 -19,35 -10,13 -22,35 -26,49 -10,31 -90,165 -123,205 -31,37 -72,53 -139,54 l -53,1 z" />
      <path
         id="p6rkHyKsT"
         d="m 5530,2712 c -37,-49 -100,-168 -100,-189 0,-7 -9,-18 -20,-25 -11,-7 -20,-18 -20,-25 0,-13 -61,-89 -107,-136 -20,-20 -34,-26 -48,-21 -26,8 -253,16 -282,9 -13,-3 -23,-11 -23,-19 0,-7 -7,-19 -15,-26 -9,-8 -15,-29 -15,-56 0,-46 16,-65 70,-78 14,-4 42,-12 63,-18 l 38,-11 -25,-26 c -49,-53 -66,-93 -66,-158 0,-56 3,-64 25,-79 40,-26 121,-15 184,25 28,18 51,39 51,45 0,16 42,56 59,56 23,0 43,-69 36,-124 -3,-28 -8,-88 -11,-132 -5,-82 -5,-82 24,-103 17,-12 45,-21 65,-21 28,0 42,8 74,43 46,49 66,104 84,226 15,102 0,206 -38,263 l -25,36 22,60 c 12,33 35,73 51,88 16,15 29,36 29,47 0,11 20,51 44,91 50,81 76,158 76,227 0,77 -2,79 -89,79 l -76,-1 z" />
      <path
         id="pfadMcdc3"
         d="m 847,2397 -38,-42 -6,-120 c -3,-66 -1,-167 4,-225 5,-58 6,-211 2,-340 -4,-129 -3,-300 2,-380 5,-80 12,-198 16,-263 3,-65 10,-120 14,-123 5,-3 9,-21 9,-41 0,-34 20,-88 55,-153 13,-24 19,-25 112,-28 105,-3 123,5 123,53 0,40 34,58 123,65 54,4 96,13 122,27 22,11 58,26 80,33 22,7 58,25 81,39 62,40 167,159 194,221 24,53 24,62 23,298 l -1,244 -48,99 c -26,55 -54,105 -61,111 -7,6 -13,30 -13,54 0,36 -6,51 -36,84 -42,46 -115,83 -199,100 -33,7 -86,21 -118,32 -54,18 -77,19 -152,6 -24,-4 -44,34 -77,142 -29,97 -76,150 -134,150 -33,0 -45,-7 -77,-43 z m 525,-583 c 45,-15 47,-17 53,-62 13,-95 19,-86 -70,-93 -44,-3 -100,-9 -126,-13 l -45,-7 -22,53 c -12,30 -22,67 -22,85 0,26 6,33 38,47 43,19 119,15 194,-10 z m 64,-507 c 3,-3 -6,-27 -20,-55 -28,-55 -19,-51 -171,-70 -33,-4 -65,-11 -71,-15 -7,-4 -16,-1 -22,6 -14,16 -19,104 -7,116 22,22 272,37 291,18 z" />
      <path
         id="pZhCizb6O"
         d="m 2667,2392 c -15,-15 -27,-34 -27,-41 0,-8 -9,-32 -19,-55 -11,-23 -22,-48 -24,-57 -4,-13 -29,-18 -139,-24 -138,-7 -179,-19 -198,-55 -8,-14 -21,-20 -45,-20 -47,0 -98,-47 -137,-124 -17,-34 -36,-68 -42,-76 -7,-8 -23,-45 -35,-82 -21,-63 -22,-81 -17,-260 7,-277 16,-357 44,-392 12,-16 22,-39 22,-51 0,-12 17,-49 39,-82 38,-59 85,-93 130,-93 11,0 34,-14 51,-30 18,-17 41,-30 56,-30 14,0 33,-4 43,-9 10,-6 58,-16 108,-24 93,-15 150,-38 160,-63 9,-25 92,-74 126,-74 56,0 100,30 119,80 15,40 17,93 17,465 0,259 -4,439 -11,470 -12,55 -12,76 -8,343 2,129 0,186 -8,194 -7,7 -12,22 -12,33 0,27 -40,65 -68,65 -12,0 -22,5 -22,10 0,6 -17,10 -38,10 -29,0 -45,-7 -65,-28 z m -64,-477 c 2,-5 2,-56 -1,-112 l -4,-103 h -102 c -56,0 -107,-5 -112,-10 -7,-7 -27,-7 -62,1 -63,15 -66,31 -23,118 32,63 82,107 127,113 60,7 174,3 177,-7 z m 3,-558 c 8,-14 15,-53 16,-87 1,-50 -2,-64 -22,-85 -19,-20 -33,-25 -75,-25 -50,0 -54,2 -107,58 -46,48 -98,126 -98,147 0,3 15,5 33,5 17,0 38,4 45,9 8,4 54,7 104,7 87,-2 91,-3 104,-29 z" />
      <path
         id="p12saSiCUn"
         d="m 4622,1977 c -37,-40 -48,-128 -56,-469 -1,-37 -4,-70 -8,-74 -4,-3 -28,-3 -53,1 -44,6 -46,8 -31,24 9,10 16,25 16,33 0,9 7,21 15,28 32,27 18,77 -44,159 -76,100 -94,111 -175,111 h -65 l -7,-35 c -9,-52 2,-94 41,-155 19,-30 35,-64 35,-76 0,-11 9,-29 21,-40 l 21,-19 -34,-8 c -18,-5 -46,-11 -63,-14 -43,-8 -53,-19 -61,-69 -8,-52 1,-94 20,-94 7,0 19,-6 25,-14 6,-7 41,-23 76,-35 56,-19 77,-21 145,-15 105,9 114,2 105,-81 -4,-38 -2,-85 6,-121 15,-72 82,-213 112,-236 12,-10 57,-29 99,-44 43,-14 80,-30 83,-35 4,-5 26,-9 50,-9 24,0 72,-9 107,-20 63,-20 192,-27 213,-12 35,24 55,67 55,118 0,47 -3,55 -30,74 -45,32 -145,70 -185,70 -22,0 -54,12 -87,33 -29,19 -61,36 -70,40 -25,9 -56,63 -69,123 -15,66 -3,90 48,97 101,13 215,37 241,51 58,30 80,105 46,154 -12,18 -25,22 -67,23 l -52,1 36,12 c 41,13 124,83 151,127 24,39 33,106 19,142 -10,27 -12,27 -96,27 -84,0 -85,0 -126,-37 -59,-54 -119,-145 -119,-183 0,-17 7,-45 16,-61 8,-17 14,-32 12,-34 -2,-1 -27,0 -55,2 l -53,6 v 42 c 0,23 -9,100 -20,171 -11,71 -20,161 -20,200 0,75 -6,88 -57,122 -41,29 -84,28 -111,-1 z" />
      <path
         id="pCKix5XoH"
         d="m 4937,1193 c -4,-3 -7,-30 -7,-59 0,-41 4,-56 20,-67 11,-7 33,-32 50,-55 34,-48 139,-102 197,-102 49,0 113,51 113,90 0,43 -79,153 -116,161 -16,4 -57,15 -91,23 -64,16 -154,21 -166,9 z" />
      <path
         id="pH6N00m3E"
         d="m 4201,1071 -104,-99 5,-86 c 2,-49 10,-92 17,-99 7,-7 40,-12 87,-11 h 75 l 50,50 c 53,52 99,134 99,177 0,14 5,29 10,32 11,7 14,64 4,90 -9,23 -58,45 -101,45 -35,0 -48,-9 -142,-99 z" />
    </g>
  </g>
  <g
     id="l22WUZgKUM2ICfZb0s40nze"
     fill="#ffffff">
    <g
       id="g1344">
      <path
         id="pFoIChJ0w"
         d="M 0,2040 V 0 H 3300 6600 V 2040 4080 H 3300 0 Z m 4670,1426 c 0,-14 5,-28 10,-31 6,-3 10,-26 10,-50 0,-24 7,-60 16,-79 16,-33 16,-35 -5,-61 -15,-20 -21,-42 -21,-76 0,-27 -9,-73 -21,-104 -23,-62 -21,-87 15,-144 29,-46 131,-91 204,-91 21,0 35,-7 42,-20 6,-12 21,-20 36,-20 28,0 102,-40 126,-68 32,-35 49,-215 25,-262 -18,-35 -100,-73 -205,-94 -92,-19 -103,-18 -190,15 -13,5 -47,9 -77,9 -86,0 -259,47 -308,84 -84,64 -81,59 -64,92 35,67 46,70 234,58 l 113,-7 15,36 c 22,53 19,74 -12,91 -55,28 -103,94 -103,141 0,14 -5,36 -12,48 -24,45 -9,128 34,187 34,47 79,201 85,288 6,78 7,82 29,82 19,0 24,-5 24,-24 z m -2336,-66 c 16,-43 22,-94 28,-225 4,-93 7,-202 7,-242 -1,-101 13,-113 125,-113 124,0 145,-6 163,-48 13,-30 13,-42 2,-75 -21,-64 -46,-74 -182,-74 -65,0 -120,-3 -124,-7 -3,-3 -1,-23 5,-43 11,-38 12,-38 65,-38 29,-1 68,-7 86,-14 86,-36 70,-156 -26,-196 -46,-19 -137,-29 -160,-17 -15,8 -26,6 -47,-8 -25,-15 -44,-17 -154,-14 l -125,5 -58,62 c -96,102 -91,135 22,161 39,9 80,16 90,16 21,0 53,43 63,84 l 7,29 -69,-7 c -64,-6 -72,-5 -98,17 -16,13 -37,26 -46,30 -9,3 -20,22 -24,42 -3,20 -13,39 -20,42 -8,3 -14,16 -14,29 0,27 -5,26 143,28 102,1 117,12 117,80 0,22 4,53 9,70 6,17 17,108 26,201 10,102 22,176 30,185 7,8 16,31 20,50 9,44 20,51 74,48 44,-3 45,-3 65,-58 z m -922,-107 c 10,-9 18,-20 18,-25 0,-4 9,-17 21,-29 16,-16 19,-28 14,-63 -4,-23 -2,-62 5,-85 6,-24 13,-73 15,-111 4,-95 43,-160 95,-160 37,0 143,-38 158,-58 16,-22 15,-77 -3,-111 -17,-35 -55,-49 -149,-57 -79,-7 -96,-16 -96,-49 0,-31 38,-45 119,-45 54,0 75,-5 102,-23 45,-30 48,-59 10,-112 -17,-24 -31,-48 -31,-53 0,-5 -24,-12 -52,-15 -29,-4 -96,-13 -148,-22 -146,-23 -248,-20 -313,9 -65,29 -87,57 -87,113 0,52 25,73 87,73 52,0 113,27 113,51 0,29 -44,55 -118,68 -77,14 -114,42 -152,116 -19,37 -19,40 -2,58 25,29 68,44 144,52 55,6 71,12 94,36 28,29 28,30 13,72 -12,31 -13,51 -6,77 5,19 10,54 11,77 1,24 7,48 14,55 7,7 12,32 12,58 0,68 10,91 44,106 40,17 46,17 68,-3 z m 2394,-456 c 17,-7 43,-25 56,-42 33,-40 113,-174 123,-205 4,-14 16,-36 26,-49 11,-13 19,-29 19,-35 0,-7 13,-25 29,-41 17,-15 42,-53 56,-84 15,-31 42,-71 61,-88 32,-30 38,-32 82,-25 52,8 169,7 218,-3 24,-4 34,-12 39,-32 11,-47 -12,-57 -139,-61 l -114,-4 -5,-27 c -7,-33 22,-95 68,-146 41,-44 41,-60 3,-88 -24,-18 -32,-19 -66,-9 -22,7 -69,38 -107,72 -37,33 -71,57 -76,54 -5,-2 -14,-22 -20,-43 -10,-33 -8,-45 10,-86 11,-26 21,-56 21,-66 0,-10 13,-33 29,-51 34,-39 32,-80 -5,-105 -28,-18 -60,-12 -115,22 -45,29 -60,60 -89,182 -34,143 -21,256 32,295 36,25 37,62 4,127 -14,26 -34,72 -44,102 -42,114 -92,223 -112,241 -11,11 -20,32 -20,48 0,17 -9,53 -20,82 -11,29 -20,59 -20,66 0,15 34,14 76,-1 z m 1890,-133 c 10,-40 -23,-142 -72,-220 -24,-40 -44,-80 -44,-91 0,-11 -13,-32 -30,-48 -16,-15 -37,-50 -45,-76 -9,-27 -21,-51 -26,-54 -18,-11 -9,-63 17,-101 43,-62 55,-146 39,-248 -17,-104 -41,-160 -88,-205 l -35,-33 -32,22 c -31,22 -32,24 -25,79 16,152 16,215 -2,251 -16,31 -22,35 -56,34 -38,-1 -87,-35 -87,-60 0,-15 -85,-70 -123,-79 -41,-11 -77,17 -77,58 0,36 41,107 84,146 50,46 32,64 -100,100 -46,12 -70,34 -60,53 10,22 31,53 39,59 13,10 201,2 238,-10 42,-14 73,-5 107,30 45,46 102,120 102,132 0,7 9,18 20,25 11,7 20,18 20,25 0,21 63,140 100,189 33,44 38,47 82,48 43,0 48,-2 54,-26 z M 969,2373 c 27,-28 43,-58 59,-113 38,-123 51,-144 94,-148 20,-2 46,2 58,8 16,9 33,7 78,-8 31,-11 84,-25 117,-32 84,-17 157,-54 199,-100 30,-33 36,-48 36,-84 0,-24 6,-48 13,-54 7,-6 35,-56 61,-110 l 47,-99 1,-214 c 0,-203 -1,-218 -23,-269 -26,-62 -130,-181 -193,-221 -23,-14 -59,-32 -81,-39 -22,-7 -58,-22 -80,-33 -26,-14 -68,-23 -122,-27 -89,-7 -123,-25 -123,-65 0,-45 -20,-56 -93,-53 -61,3 -70,6 -82,28 -35,65 -55,119 -55,153 0,20 -4,39 -10,42 -5,3 -10,43 -10,88 0,45 -5,116 -11,157 -14,103 -12,608 2,682 9,47 9,64 -1,84 -10,17 -14,75 -14,202 v 177 l 39,42 c 22,24 44,43 49,43 4,0 25,-17 45,-37 z m 1771,7 c 0,-5 10,-10 22,-10 28,0 68,-38 68,-65 0,-11 5,-26 11,-32 7,-7 10,-64 8,-164 -4,-250 -3,-321 9,-374 7,-31 11,-197 11,-440 0,-446 -3,-465 -71,-498 l -36,-18 -45,31 c -25,16 -47,36 -50,44 -12,30 -103,61 -210,72 -21,2 -47,9 -57,14 -10,6 -30,10 -44,10 -15,0 -38,13 -56,30 -17,16 -40,30 -51,30 -45,0 -92,34 -130,93 -22,33 -39,70 -39,82 0,11 -11,37 -25,56 -21,27 -25,41 -20,69 3,20 1,58 -6,85 -6,28 -13,122 -15,209 -4,143 -2,166 18,225 12,36 27,73 34,81 6,8 25,42 42,76 39,77 90,124 137,124 24,0 37,6 45,20 16,29 49,44 105,47 157,6 227,16 232,32 2,9 13,34 24,57 10,23 19,47 19,55 0,14 49,69 62,69 4,0 8,-4 8,-10 z m 2008,-468 c 7,-9 12,-44 12,-85 0,-38 9,-128 20,-200 11,-73 21,-152 22,-177 l 3,-45 157,3 c 157,2 157,2 173,-22 15,-23 15,-27 -1,-51 -9,-14 -30,-33 -46,-41 -30,-15 -174,-45 -238,-49 -29,-1 -38,-8 -55,-38 -19,-35 -19,-37 -2,-104 21,-78 44,-121 72,-137 11,-6 42,-25 70,-42 33,-20 69,-33 101,-36 55,-5 181,-62 197,-89 14,-22 2,-59 -28,-92 -32,-34 -81,-36 -173,-7 -35,11 -83,20 -107,20 -24,0 -46,4 -50,9 -3,5 -40,21 -83,35 -42,15 -87,34 -99,44 -29,23 -92,152 -109,221 -10,44 -11,68 -2,113 10,49 9,59 -6,83 -17,26 -19,27 -114,24 -101,-2 -188,17 -213,47 -6,8 -17,14 -24,14 -17,0 -25,23 -18,52 9,34 23,48 49,48 13,0 34,5 48,12 20,9 44,8 110,-5 47,-10 105,-17 130,-17 42,0 45,2 56,35 8,25 9,44 2,64 -6,16 -7,32 -4,36 4,3 7,70 8,148 2,157 15,231 46,264 l 21,22 31,-21 c 17,-12 37,-28 44,-36 z m -402,-169 c 14,-9 53,-52 86,-95 56,-74 59,-81 44,-97 -9,-10 -16,-24 -16,-32 0,-24 -21,-39 -54,-39 -36,0 -86,44 -86,75 0,12 -12,40 -26,61 -63,92 -66,144 -7,144 18,0 45,-8 59,-17 z m 870,-34 c 12,-20 6,-65 -13,-97 -29,-47 -114,-117 -159,-130 -60,-18 -72,-15 -89,18 -15,29 -15,32 24,88 21,32 57,74 80,95 37,33 47,37 95,37 30,0 58,-5 62,-11 z m -107,-563 c 41,-10 78,-19 82,-22 4,-2 25,-31 47,-64 l 40,-60 -39,-31 -39,-31 -67,28 c -43,19 -75,41 -92,63 -14,19 -38,46 -53,60 -27,24 -36,59 -21,75 9,9 39,5 142,-18 z m -730,-21 c 35,-17 46,-42 29,-63 -7,-8 -12,-23 -10,-34 6,-32 -44,-121 -96,-171 -43,-43 -55,-49 -95,-50 -25,-1 -51,3 -57,9 -6,6 -14,37 -17,68 l -6,57 104,100 c 57,54 107,99 112,99 4,0 21,-7 36,-15 z" />
      <path
         id="p185KKOOd0"
         d="m 4817,2643 c -2,-5 -7,-20 -11,-35 -6,-25 -3,-28 34,-39 45,-14 90,-1 90,25 0,29 -100,72 -113,49 z" />
      <path
         id="pRnEIQumI"
         d="m 1143,1851 -42,-19 6,-59 c 2,-32 14,-81 26,-110 16,-42 26,-53 49,-59 16,-3 41,-1 56,5 15,6 72,14 127,18 l 100,8 1,60 c 0,33 -4,77 -10,97 -9,32 -17,40 -56,53 -25,9 -83,18 -130,21 -71,4 -92,2 -127,-15 z" />
      <path
         id="p12FXVZ0gz"
         d="m 1200,1338 c -41,-5 -81,-14 -88,-20 -10,-9 -12,-29 -6,-87 8,-94 15,-105 68,-96 23,3 60,6 84,5 23,0 56,7 72,15 16,8 43,15 59,15 28,0 34,6 66,70 19,38 35,74 35,79 0,29 -141,38 -290,19 z" />
      <path
         id="pIKvA2qhI"
         d="m 2577,1964 c -4,-4 -51,-8 -105,-9 -92,-1 -101,-3 -136,-30 -59,-45 -114,-167 -101,-225 5,-23 14,-29 56,-38 62,-15 116,-15 124,-2 3,6 52,10 111,10 h 104 v 75 c 0,41 5,95 12,120 11,39 10,49 -4,73 -16,26 -47,40 -61,26 z" />
      <path
         id="pshAqz9qS"
         d="m 2380,1415 c -14,-8 -42,-14 -64,-15 h -38 l 7,-37 c 11,-58 43,-112 103,-175 l 55,-58 h 82 c 74,0 84,2 105,25 21,22 24,37 26,109 2,70 -1,89 -20,122 -17,30 -28,39 -47,37 -13,-1 -40,-3 -59,-4 -19,-1 -55,1 -80,4 -32,5 -52,3 -70,-8 z" />
    </g>
  </g>
</svg>
